<?xml version="1.0" encoding="utf-8"?>
<!-- Generator: Adobe Illustrator 25.2.0, SVG Export Plug-In . SVG Version: 6.00 Build 0)  -->
<svg version="1.1" id="Layer_1" xmlns="http://www.w3.org/2000/svg" xmlns:xlink="http://www.w3.org/1999/xlink" x="0px" y="0px"
	 viewBox="0 0 33 20" style="enable-background:new 0 0 33 20;" height="20" width="33" xml:space="preserve">
<style type="text/css">
	.st0{fill:#346734;}
</style>
<path class="st0" d="M10.1,1C10,1,10,1,10.1,1C10,1,9.9,1,9.9,1L8.2,4c0,0,0,0.1,0,0.1c0,0,0,0,0.1,0h3.4c0,0,0.1,0,0.1,0
	s0-0.1,0-0.1L10.1,1z"/>
<path class="st0" d="M2.7,14.6C2.7,14.6,2.6,14.6,2.7,14.6c-0.1-0.1-0.1-0.1-0.1,0l-2.4,2.4c0,0,0,0.1,0,0.1s0,0.1,0.1,0.1L3.4,18
	c0,0,0,0,0,0c0,0,0,0,0.1,0c0,0,0-0.1,0-0.1L2.7,14.6z"/>
<g>
	<g>
		<path class="st0" d="M18.4,12.7C18,12.9,17.6,13,17.1,13c-1,0-1.7-0.2-2.4-0.9c-0.7-0.7-1.4-1.9-1.4-4.1c0-1,0.1-2.9,1.4-4.3
			c0.6-0.7,1.5-1,2.4-1c0.4,0,0.9,0.1,1.2,0.3v2c-0.3-0.3-0.7-0.4-1.1-0.4c-0.4,0-0.8,0.2-1.1,0.4c-0.5,0.5-0.8,1.6-0.8,2.9
			c0,0.3,0,1.8,0.7,2.6c0.2,0.3,0.6,0.5,1.1,0.5c0.4,0,0.9-0.2,1.2-0.5V12.7z"/>
	</g>
	<g>
		<path class="st0" d="M23.3,9.7c-0.2-1-0.4-1.9-0.6-2.9c-0.1-0.4-0.1-0.9-0.2-1.3c-0.1,1.4-0.4,2.8-0.7,4.2H23.3z M24,12.9
			l-0.4-1.7h-2l-0.4,1.7h-2l2.3-10h2.1l2.4,10H24z"/>
	</g>
	<g>
		<path class="st0" d="M29,11.1c1.6,0,2-1.9,2-3.1c0-1-0.2-2.3-1-2.9c-0.3-0.3-0.6-0.3-1-0.3L29,11.1L29,11.1z M28.6,2.9
			c0.7,0,1.4,0,2,0.3c1.8,0.8,2.3,2.9,2.3,4.7c0,2.7-1,5-4.1,5h-1.9v-10H28.6z"/>
	</g>
</g>
<path class="st0" d="M20.7,18.2C20.7,18.2,20.7,18.2,20.7,18.2c0.1-0.1,0.1-0.1,0-0.1l-2.4-2.4c0,0-0.1,0-0.1,0c0,0-0.1,0-0.1,0.1
	L17.3,19c0,0,0,0.1,0,0.1c0,0,0.1,0,0.1,0L20.7,18.2z"/>
<path class="st0" d="M18.2,17.1l-7.9-2.6v-0.3h0V3.7c0-0.2-0.2-0.4-0.4-0.4c-0.2,0-0.4,0.2-0.4,0.4v10.5v0.2v0.1L2.8,16
	c-0.2,0-0.3,0.2-0.3,0.4c0,0.2,0.2,0.3,0.3,0.3c0,0,0.1,0,0.1,0l7-1.5l8,2.6c0,0,0.1,0,0.1,0c0.2,0,0.3-0.1,0.3-0.2
	C18.5,17.3,18.4,17.1,18.2,17.1z"/>
</svg>
